<svg width="32" height="36" viewBox="0 0 32 36" fill="none" xmlns="http://www.w3.org/2000/svg">
<path d="M22.7335 13.0549H6.64142V29.6703H22.7335V13.0549Z" fill="#CEE8FA"/>
<path d="M10.9474 25.4513C10.486 25.4513 10.1121 25.0651 10.1121 24.5887V19.0679C10.1121 18.5916 10.486 18.2053 10.9474 18.2053C11.4087 18.2053 11.7827 18.5916 11.7827 19.0679V24.5887C11.7827 25.065 11.4088 25.4513 10.9474 25.4513Z" fill="#2D527C"/>
<path d="M14.9778 25.4513C14.5165 25.4513 14.1425 25.0651 14.1425 24.5887V19.0679C14.1425 18.5916 14.5165 18.2053 14.9778 18.2053C15.4392 18.2053 15.8131 18.5916 15.8131 19.0679V24.5887C15.8131 25.065 15.4392 25.4513 14.9778 25.4513Z" fill="#2D527C"/>
<path d="M19.0082 25.4513C18.5469 25.4513 18.1729 25.0651 18.1729 24.5887V19.0679C18.1729 18.5916 18.5469 18.2053 19.0082 18.2053C19.4695 18.2053 19.8435 18.5916 19.8435 19.0679V24.5887C19.8435 25.065 19.4695 25.4513 19.0082 25.4513Z" fill="#2D527C"/>
<path d="M25.6438 8.19408C25.1515 7.39547 24.3876 6.8427 23.4929 6.63748C23.0428 6.5337 22.5964 6.82745 22.4963 7.29253C22.3964 7.75768 22.6803 8.21831 23.1306 8.32167C23.5899 8.42708 23.9818 8.7107 24.2344 9.12052C24.487 9.53034 24.57 10.0172 24.4679 10.4915L24.0347 12.5055L6.09522 8.39074L6.52842 6.37658C6.73898 5.39765 7.68125 4.77834 8.62948 4.99543L17.1033 6.939C17.5534 7.04224 17.9997 6.74898 18.0998 6.28395C18.1998 5.8188 17.9158 5.35818 17.4655 5.25482L12.6544 4.15137L13.1403 1.89175L20.3162 3.53755L19.6491 6.63935C19.5491 7.1045 19.8331 7.56513 20.2834 7.66849C20.3444 7.68247 20.4053 7.68922 20.4652 7.68922C20.8483 7.68922 21.1935 7.41548 21.2799 7.01343L22.1281 3.06951C22.1762 2.84615 22.1363 2.61225 22.0174 2.41928C21.8984 2.2263 21.7101 2.09003 21.4938 2.04043L12.687 0.0206158C12.2369 -0.082382 11.7905 0.21058 11.6905 0.675667L11.0234 3.77741L8.99165 3.31142C7.14429 2.88738 5.30777 4.09508 4.89745 6.00268L4.28315 8.85884C4.18318 9.32398 4.46716 9.78461 4.91746 9.88797L16.0446 12.4401H6.95888C6.49755 12.4401 6.12358 12.8264 6.12358 13.3027V29.9945C6.12358 30.4709 6.49755 30.8571 6.95888 30.8571H22.9966C23.458 30.8571 23.8319 30.4709 23.8319 29.9945V14.2262L24.4881 14.3767C24.548 14.3905 24.6087 14.3973 24.6692 14.3973C24.8268 14.3973 24.9826 14.3512 25.1177 14.2623C25.3046 14.1395 25.4365 13.945 25.4847 13.7216L26.099 10.8655C26.2977 9.94143 26.136 8.99269 25.6438 8.19408ZM22.1614 29.1319H7.79424V14.1654H22.1614V29.1319Z" fill="#8CC1EA"/>
</svg>
