<svg width="32" height="32" viewBox="0 0 32 32" fill="none" xmlns="http://www.w3.org/2000/svg">
<path d="M28.3721 24.1709H31.4398V7.90381H8.96326V24.1709H26.5048" fill="#8CC1EA"/>
<path d="M8.96326 10.294L13.0085 13.9142L14.4362 15.1919L20.2015 20.3516L31.4398 10.294V7.90381H8.96326V10.294Z" fill="#79B1D6"/>
<path d="M8.96326 7.90381L13.0085 11.5241L14.4362 12.8017L20.2015 17.9614L31.4398 7.90381" fill="#8CC1EA"/>
<path d="M31.4398 7.30627H8.96326C8.65389 7.30627 8.40308 7.55709 8.40308 7.86646V24.1335C8.40308 24.4429 8.65389 24.6937 8.96326 24.6937H26.5047C26.8141 24.6937 27.0649 24.4429 27.0649 24.1335C27.0649 23.8242 26.8141 23.5734 26.5047 23.5734H10.4293L18.0515 16.7517L19.828 18.3415C19.9343 18.4367 20.0679 18.4843 20.2015 18.4843C20.3351 18.4843 20.4688 18.4367 20.5751 18.3415L22.3513 16.7519L29.9733 23.5734H28.3721C28.0627 23.5734 27.8119 23.8242 27.8119 24.1335C27.8119 24.4429 28.0627 24.6937 28.3721 24.6937H31.4398C31.7492 24.6937 32 24.4429 32 24.1335V7.86646C32 7.55709 31.7492 7.30627 31.4398 7.30627ZM20.2015 17.1723L14.8098 12.3471C14.5793 12.1408 14.2251 12.1603 14.0188 12.391C13.8125 12.6215 13.832 12.9757 14.0626 13.182L17.2115 16L9.52345 22.8805V9.11971L12.6349 11.9043C12.7418 12 12.8753 12.047 13.0083 12.047C13.1621 12.047 13.3153 11.9841 13.4259 11.8605C13.6322 11.6299 13.6126 11.2758 13.382 11.0695L10.4292 8.4269H29.9738L20.2015 17.1723ZM30.8796 9.11965V22.8809L23.1914 16.0001L30.8796 9.11965Z" fill="black"/>
<path d="M2.05408 10.3982H6.42346C6.73283 10.3982 6.98365 10.1474 6.98365 9.83802C6.98365 9.52864 6.73283 9.27783 6.42346 9.27783H2.05408C1.74471 9.27783 1.4939 9.52864 1.4939 9.83802C1.4939 10.1474 1.74471 10.3982 2.05408 10.3982Z" fill="black"/>
<path d="M6.79685 17.1204H2.80097C2.4916 17.1204 2.24078 17.3712 2.24078 17.6805C2.24078 17.9899 2.4916 18.2407 2.80097 18.2407H6.79685C7.10622 18.2407 7.35703 17.9899 7.35703 17.6805C7.3571 17.3712 7.10622 17.1204 6.79685 17.1204Z" fill="black"/>
<path d="M0.560188 14.8797H5.303C5.61237 14.8797 5.86319 14.6288 5.86319 14.3195C5.86319 14.0101 5.61237 13.7593 5.303 13.7593H0.560188C0.250813 13.7593 0 14.0101 0 14.3195C0 14.6288 0.250813 14.8797 0.560188 14.8797Z" fill="black"/>
<path d="M5.30301 21.6018H4.84357C4.5342 21.6018 4.28339 21.8526 4.28339 22.162C4.28339 22.4714 4.5342 22.7222 4.84357 22.7222H5.30301C5.61239 22.7222 5.8632 22.4714 5.8632 22.162C5.8632 21.8526 5.61239 21.6018 5.30301 21.6018Z" fill="black"/>
<path d="M2.97625 21.6018H0.560188C0.250813 21.6018 0 21.8526 0 22.162C0 22.4714 0.250813 22.7222 0.560188 22.7222H2.97625C3.28562 22.7222 3.53644 22.4714 3.53644 22.162C3.53644 21.8526 3.28562 21.6018 2.97625 21.6018Z" fill="black"/>
</svg>
